<symbol id="favorite" viewBox="0 0 32 32">
<path   stroke-linejoin="round" stroke-linecap="round" stroke-miterlimit="4" stroke-width="2.6667" d="M27.787 6.148c-1.327-1.328-3.161-2.149-5.187-2.149s-3.859 0.821-5.187 2.149l-1.413 1.413-1.413-1.413c-1.325-1.315-3.151-2.128-5.166-2.128-4.051 0-7.335 3.284-7.335 7.335 0 2.015 0.813 3.841 2.128 5.167l11.786 11.784 11.787-11.787c1.328-1.327 2.149-3.161 2.149-5.187s-0.821-3.859-2.149-5.187l-0-0z"></path>
</symbol>

<symbol id="chevron-down" viewBox="0 0 32 32">
<path fill="none" style="" stroke-linejoin="round" stroke-linecap="round" stroke-miterlimit="4" stroke-width="3.2" d="M8 12l8 8 8-8"></path>
</symbol>

<svg id='like' xmlns="http://www.w3.org/2000/svg" viewBox="0 0 24 24" width="24" height="24" fill="none" stroke="currentColor" stroke-width="2" stroke-linecap="round" stroke-linejoin="round">
  <path d="M12 21.35l-1.45-1.32C5.4 14.25 2 11.28 2 7.5 2 4.42 4.42 2 7.5 2c1.74 0 3.41.81 4.5 2.09C14.09 2.81 15.76 2 17.5 2 20.58 2 23 4.42 23 7.5c0 3.78-3.4 6.75-8.55 12.54L12 21.35z"/>
</svg>